<?xml version="1.0" standalone="no"?>
<!DOCTYPE svg PUBLIC "-//W3C//DTD SVG 20010904//EN"
 "http://www.w3.org/TR/2001/REC-SVG-20010904/DTD/svg10.dtd">
<svg version="1.0" xmlns="http://www.w3.org/2000/svg"
 width="256.000000pt" height="256.000000pt" viewBox="0 0 256.000000 256.000000"
 preserveAspectRatio="xMidYMid meet">

<g transform="translate(0.000000,256.000000) scale(0.100000,-0.100000)"
fill="#000000" stroke="none">
<path d="M1301 2212 c-6 -2 -11 -30 -11 -68 l0 -64 43 0 c56 0 191 -33 259
-63 183 -81 343 -244 418 -423 l31 -76 -22 -18 c-12 -11 -29 -22 -39 -25 -15
-5 -16 -12 -9 -43 4 -20 11 -54 14 -74 4 -29 11 -38 25 -38 11 0 24 -9 30 -20
9 -17 21 -20 84 -20 96 0 101 5 86 107 -16 117 -37 188 -90 298 -142 293 -424
497 -727 523 -44 4 -86 6 -92 4z m749 -728 c0 -8 -4 -12 -10 -9 -5 3 -10 10
-10 16 0 5 5 9 10 9 6 0 10 -7 10 -16z"/>
<path d="M1084 2191 c-122 -30 -271 -98 -364 -166 -57 -42 -177 -166 -217
-225 -88 -130 -153 -313 -156 -440 l-2 -75 68 -3 67 -3 0 54 c0 116 69 306
151 414 142 188 344 307 564 330 l70 8 0 60 0 60 -55 2 c-30 1 -87 -6 -126
-16z"/>
<path d="M1223 1643 c9 -2 23 -2 30 0 6 3 -1 5 -18 5 -16 0 -22 -2 -12 -5z"/>
<path d="M1303 1643 c9 -2 23 -2 30 0 6 3 -1 5 -18 5 -16 0 -22 -2 -12 -5z"/>
<path d="M1178 1633 c7 -3 16 -2 19 1 4 3 -2 6 -13 5 -11 0 -14 -3 -6 -6z"/>
<path d="M1358 1633 c7 -3 16 -2 19 1 4 3 -2 6 -13 5 -11 0 -14 -3 -6 -6z"/>
<path d="M1130 1620 c-8 -5 -10 -10 -5 -10 6 0 17 5 25 10 8 5 11 10 5 10 -5
0 -17 -5 -25 -10z"/>
<path d="M1447 1600 c34 -17 80 -51 104 -77 38 -42 41 -47 23 -53 -10 -4 -21
-4 -24 0 -7 10 -56 21 -63 13 -4 -3 3 -19 14 -34 24 -34 37 -77 41 -130 l2
-39 64 0 65 0 -7 43 c-9 57 -56 154 -97 199 -36 39 -142 108 -168 108 -8 0 13
-14 46 -30z"/>
<path d="M1043 1571 c-77 -56 -137 -154 -149 -245 l-7 -46 62 0 61 0 0 54 0
53 -37 -1 c-21 0 -41 -5 -45 -11 -17 -23 -6 19 17 64 25 51 70 102 120 139 17
12 27 22 24 22 -3 0 -24 -13 -46 -29z"/>
<path d="M1220 1472 c-40 -41 -41 -83 -1 -123 33 -32 58 -36 101 -14 51 26 61
107 17 143 -8 7 -31 16 -51 19 -30 5 -40 1 -66 -25z"/>
<path d="M1900 1465 c-6 -14 -10 -32 -10 -38 -1 -7 -10 -1 -22 13 -17 20 -20
21 -14 5 4 -11 13 -53 19 -92 11 -70 13 -73 39 -73 49 0 61 54 33 148 -19 61
-32 72 -45 37z"/>
<path d="M1178 1290 c-29 -22 -58 -78 -58 -110 0 -54 186 -82 278 -40 23 10
42 26 42 34 0 28 -21 71 -51 102 l-30 31 -37 -19 c-39 -20 -75 -17 -103 8 -14
13 -19 12 -41 -6z"/>
<path d="M534 1279 c-3 -6 0 -17 7 -25 18 -17 44 -2 36 20 -7 18 -33 21 -43 5z"/>
<path d="M1975 1280 c-9 -15 14 -40 31 -33 22 8 18 43 -5 43 -11 0 -23 -5 -26
-10z"/>
<path d="M358 1249 c-24 -13 -23 -68 1 -185 35 -169 109 -310 233 -440 151
-158 326 -251 547 -289 135 -24 131 -29 131 164 l0 158 -61 7 c-143 14 -298
98 -392 210 -49 60 -125 201 -114 213 4 3 17 -20 31 -50 80 -182 221 -302 411
-352 32 -8 74 -15 92 -15 33 0 33 0 34 53 l2 52 8 -45 c4 -25 8 -122 8 -216 1
-126 4 -174 14 -182 15 -13 120 -1 223 24 131 32 331 144 415 231 151 156 243
346 270 556 14 110 7 120 -79 115 -50 -3 -75 -9 -98 -26 -27 -20 -34 -22 -57
-11 -15 7 -27 16 -27 21 0 4 -29 8 -65 8 -79 0 -100 -17 -116 -93 -14 -64 -57
-150 -99 -197 -21 -24 -28 -28 -20 -12 6 13 10 61 9 110 -1 48 1 110 5 138 l8
51 -38 6 c-84 14 -89 12 -107 -47 -15 -47 -146 -250 -221 -341 l-25 -30 -25
25 c-69 69 -218 302 -240 373 -4 14 -17 17 -67 17 l-62 0 6 -52 c14 -116 101
-227 223 -285 51 -24 84 -48 113 -83 24 -29 36 -50 29 -52 -30 -10 -130 16
-206 53 -142 69 -248 200 -268 330 -10 65 -40 89 -113 89 -81 0 -96 -18 -95
-114 0 -78 26 -152 85 -253 40 -66 152 -184 199 -208 21 -11 29 -20 23 -26
-11 -11 -28 1 -121 86 -105 96 -184 232 -223 382 -10 41 -21 78 -24 83 -12 20
-25 9 -27 -22 -1 -21 -3 -12 -7 22 l-6 55 -50 2 c-27 2 -58 -2 -67 -8z m1666
-76 c-26 -123 -87 -269 -133 -323 -17 -19 -16 -15 5 20 50 83 82 172 110 308
2 12 9 22 14 22 6 0 8 -12 4 -27z m-197 -157 c-14 -31 -28 -56 -31 -56 -2 0 8
27 22 60 14 32 28 57 30 55 2 -2 -7 -29 -21 -59z"/>
</g>
</svg>
